%TF.GenerationSoftware,KiCad,Pcbnew,7.0.10-7.0.10~ubuntu22.04.1*%
%TF.CreationDate,2024-01-29T20:12:12+05:30*%
%TF.ProjectId,bir-pms7003-rj11,6269722d-706d-4733-9730-30332d726a31,rev?*%
%TF.SameCoordinates,Original*%
%TF.FileFunction,Copper,L1,Top*%
%TF.FilePolarity,Positive*%
%FSLAX46Y46*%
G04 Gerber Fmt 4.6, Leading zero omitted, Abs format (unit mm)*
G04 Created by KiCad (PCBNEW 7.0.10-7.0.10~ubuntu22.04.1) date 2024-01-29 20:12:12*
%MOMM*%
%LPD*%
G01*
G04 APERTURE LIST*
%TA.AperFunction,ComponentPad*%
%ADD10R,1.000000X1.000000*%
%TD*%
%TA.AperFunction,ComponentPad*%
%ADD11O,1.000000X1.000000*%
%TD*%
%TA.AperFunction,ComponentPad*%
%ADD12C,1.879600*%
%TD*%
%TA.AperFunction,Conductor*%
%ADD13C,0.250000*%
%TD*%
G04 APERTURE END LIST*
D10*
%TO.P,J2,1,Pin_1*%
%TO.N,/5V*%
X98806000Y-52324000D03*
D11*
%TO.P,J2,2,Pin_2*%
X97536000Y-52324000D03*
%TO.P,J2,3,Pin_3*%
%TO.N,/GND*%
X98806000Y-53594000D03*
%TO.P,J2,4,Pin_4*%
X97536000Y-53594000D03*
%TO.P,J2,5,Pin_5*%
%TO.N,unconnected-(J2-Pin_5-Pad5)*%
X98806000Y-54864000D03*
%TO.P,J2,6,Pin_6*%
%TO.N,unconnected-(J2-Pin_6-Pad6)*%
X97536000Y-54864000D03*
%TO.P,J2,7,Pin_7*%
%TO.N,/GPIO14{slash}TXD0*%
X98806000Y-56134000D03*
%TO.P,J2,8,Pin_8*%
%TO.N,unconnected-(J2-Pin_8-Pad8)*%
X97536000Y-56134000D03*
%TO.P,J2,9,Pin_9*%
%TO.N,/GPIO15{slash}RXD0*%
X98806000Y-57404000D03*
%TO.P,J2,10,Pin_10*%
%TO.N,unconnected-(J2-Pin_10-Pad10)*%
X97536000Y-57404000D03*
%TD*%
D12*
%TO.P,J1,1*%
%TO.N,unconnected-(J1-Pad1)*%
X83132600Y-58426600D03*
%TO.P,J1,2*%
%TO.N,/GPIO14{slash}TXD0*%
X80592600Y-57156600D03*
%TO.P,J1,3*%
%TO.N,/GPIO15{slash}RXD0*%
X83132600Y-55886600D03*
%TO.P,J1,4*%
%TO.N,/5V*%
X80592600Y-54616600D03*
%TO.P,J1,5*%
%TO.N,/GND*%
X83132600Y-53346600D03*
%TO.P,J1,6*%
%TO.N,unconnected-(J1-Pad6)*%
X80592600Y-52076600D03*
%TD*%
D13*
%TO.N,/GPIO14{slash}TXD0*%
X99822000Y-56134000D02*
X98806000Y-56134000D01*
X100076000Y-56388000D02*
X99822000Y-56134000D01*
X100076000Y-59182000D02*
X100076000Y-56388000D01*
X99060000Y-60198000D02*
X100076000Y-59182000D01*
X82042000Y-60198000D02*
X99060000Y-60198000D01*
X80592600Y-58748600D02*
X82042000Y-60198000D01*
X80592600Y-57156600D02*
X80592600Y-58748600D01*
%TO.N,/5V*%
X80592600Y-54616600D02*
X78740000Y-52764000D01*
X84582000Y-51816000D02*
X97028000Y-51816000D01*
X78740000Y-52764000D02*
X78740000Y-50800000D01*
X78740000Y-50800000D02*
X79502000Y-50038000D01*
X82804000Y-50038000D02*
X84582000Y-51816000D01*
X79502000Y-50038000D02*
X82804000Y-50038000D01*
X97028000Y-51816000D02*
X97536000Y-52324000D01*
%TO.N,/GPIO15{slash}RXD0*%
X95758000Y-58674000D02*
X98552000Y-58674000D01*
X98806000Y-58420000D02*
X98806000Y-57404000D01*
X98552000Y-58674000D02*
X98806000Y-58420000D01*
X83132600Y-55886600D02*
X92970600Y-55886600D01*
X92970600Y-55886600D02*
X95758000Y-58674000D01*
%TO.N,/GND*%
X97536000Y-53594000D02*
X98806000Y-53594000D01*
%TO.N,/5V*%
X97536000Y-52324000D02*
X98806000Y-52324000D01*
%TO.N,/GND*%
X83132600Y-53346600D02*
X97288600Y-53346600D01*
X97288600Y-53346600D02*
X97536000Y-53594000D01*
%TD*%
M02*
