%TF.GenerationSoftware,KiCad,Pcbnew,7.0.10-7.0.10~ubuntu22.04.1*%
%TF.CreationDate,2024-01-29T20:12:13+05:30*%
%TF.ProjectId,bir-pms7003-rj11,6269722d-706d-4733-9730-30332d726a31,rev?*%
%TF.SameCoordinates,Original*%
%TF.FileFunction,Legend,Bot*%
%TF.FilePolarity,Positive*%
%FSLAX46Y46*%
G04 Gerber Fmt 4.6, Leading zero omitted, Abs format (unit mm)*
G04 Created by KiCad (PCBNEW 7.0.10-7.0.10~ubuntu22.04.1) date 2024-01-29 20:12:13*
%MOMM*%
%LPD*%
G01*
G04 APERTURE LIST*
%ADD10C,0.025400*%
%ADD11C,0.203200*%
G04 APERTURE END LIST*
D10*
X74212887Y-53492066D02*
X74503173Y-53492066D01*
X74503173Y-53492066D02*
X74561230Y-53511419D01*
X74561230Y-53511419D02*
X74599935Y-53550123D01*
X74599935Y-53550123D02*
X74619287Y-53608181D01*
X74619287Y-53608181D02*
X74619287Y-53646885D01*
X74619287Y-53085666D02*
X74619287Y-53317895D01*
X74619287Y-53201781D02*
X74212887Y-53201781D01*
X74212887Y-53201781D02*
X74270944Y-53240485D01*
X74270944Y-53240485D02*
X74309649Y-53279190D01*
X74309649Y-53279190D02*
X74329001Y-53317895D01*
X76412887Y-53979114D02*
X76412887Y-54056524D01*
X76412887Y-54056524D02*
X76432239Y-54095228D01*
X76432239Y-54095228D02*
X76451592Y-54114581D01*
X76451592Y-54114581D02*
X76509649Y-54153286D01*
X76509649Y-54153286D02*
X76587058Y-54172638D01*
X76587058Y-54172638D02*
X76741877Y-54172638D01*
X76741877Y-54172638D02*
X76780582Y-54153286D01*
X76780582Y-54153286D02*
X76799935Y-54133933D01*
X76799935Y-54133933D02*
X76819287Y-54095228D01*
X76819287Y-54095228D02*
X76819287Y-54017819D01*
X76819287Y-54017819D02*
X76799935Y-53979114D01*
X76799935Y-53979114D02*
X76780582Y-53959762D01*
X76780582Y-53959762D02*
X76741877Y-53940409D01*
X76741877Y-53940409D02*
X76645115Y-53940409D01*
X76645115Y-53940409D02*
X76606411Y-53959762D01*
X76606411Y-53959762D02*
X76587058Y-53979114D01*
X76587058Y-53979114D02*
X76567706Y-54017819D01*
X76567706Y-54017819D02*
X76567706Y-54095228D01*
X76567706Y-54095228D02*
X76587058Y-54133933D01*
X76587058Y-54133933D02*
X76606411Y-54153286D01*
X76606411Y-54153286D02*
X76645115Y-54172638D01*
X76819287Y-53766238D02*
X76412887Y-53766238D01*
X76412887Y-53766238D02*
X76412887Y-53611419D01*
X76412887Y-53611419D02*
X76432239Y-53572714D01*
X76432239Y-53572714D02*
X76451592Y-53553361D01*
X76451592Y-53553361D02*
X76490296Y-53534009D01*
X76490296Y-53534009D02*
X76548354Y-53534009D01*
X76548354Y-53534009D02*
X76587058Y-53553361D01*
X76587058Y-53553361D02*
X76606411Y-53572714D01*
X76606411Y-53572714D02*
X76625763Y-53611419D01*
X76625763Y-53611419D02*
X76625763Y-53766238D01*
X76412887Y-53185666D02*
X76412887Y-53263076D01*
X76412887Y-53263076D02*
X76432239Y-53301780D01*
X76432239Y-53301780D02*
X76451592Y-53321133D01*
X76451592Y-53321133D02*
X76509649Y-53359838D01*
X76509649Y-53359838D02*
X76587058Y-53379190D01*
X76587058Y-53379190D02*
X76741877Y-53379190D01*
X76741877Y-53379190D02*
X76780582Y-53359838D01*
X76780582Y-53359838D02*
X76799935Y-53340485D01*
X76799935Y-53340485D02*
X76819287Y-53301780D01*
X76819287Y-53301780D02*
X76819287Y-53224371D01*
X76819287Y-53224371D02*
X76799935Y-53185666D01*
X76799935Y-53185666D02*
X76780582Y-53166314D01*
X76780582Y-53166314D02*
X76741877Y-53146961D01*
X76741877Y-53146961D02*
X76645115Y-53146961D01*
X76645115Y-53146961D02*
X76606411Y-53166314D01*
X76606411Y-53166314D02*
X76587058Y-53185666D01*
X76587058Y-53185666D02*
X76567706Y-53224371D01*
X76567706Y-53224371D02*
X76567706Y-53301780D01*
X76567706Y-53301780D02*
X76587058Y-53340485D01*
X76587058Y-53340485D02*
X76606411Y-53359838D01*
X76606411Y-53359838D02*
X76645115Y-53379190D01*
X76780582Y-52740561D02*
X76799935Y-52759913D01*
X76799935Y-52759913D02*
X76819287Y-52817971D01*
X76819287Y-52817971D02*
X76819287Y-52856675D01*
X76819287Y-52856675D02*
X76799935Y-52914732D01*
X76799935Y-52914732D02*
X76761230Y-52953437D01*
X76761230Y-52953437D02*
X76722525Y-52972790D01*
X76722525Y-52972790D02*
X76645115Y-52992142D01*
X76645115Y-52992142D02*
X76587058Y-52992142D01*
X76587058Y-52992142D02*
X76509649Y-52972790D01*
X76509649Y-52972790D02*
X76470944Y-52953437D01*
X76470944Y-52953437D02*
X76432239Y-52914732D01*
X76432239Y-52914732D02*
X76412887Y-52856675D01*
X76412887Y-52856675D02*
X76412887Y-52817971D01*
X76412887Y-52817971D02*
X76432239Y-52759913D01*
X76432239Y-52759913D02*
X76451592Y-52740561D01*
D11*
%TO.C,J1*%
X85532600Y-49256600D02*
X72532600Y-49256600D01*
X85532600Y-49256600D02*
X85532600Y-61376600D01*
X72532600Y-49256600D02*
X72532600Y-61376600D01*
X72532600Y-61376600D02*
X85532600Y-61376600D01*
%TD*%
M02*
