%TF.GenerationSoftware,KiCad,Pcbnew,7.0.10-7.0.10~ubuntu22.04.1*%
%TF.CreationDate,2024-01-31T09:21:12+05:30*%
%TF.ProjectId,bir-pms7003-rj11,6269722d-706d-4733-9730-30332d726a31,rev?*%
%TF.SameCoordinates,Original*%
%TF.FileFunction,Legend,Top*%
%TF.FilePolarity,Positive*%
%FSLAX46Y46*%
G04 Gerber Fmt 4.6, Leading zero omitted, Abs format (unit mm)*
G04 Created by KiCad (PCBNEW 7.0.10-7.0.10~ubuntu22.04.1) date 2024-01-31 09:21:12*
%MOMM*%
%LPD*%
G01*
G04 APERTURE LIST*
%ADD10C,0.200000*%
%ADD11C,0.150000*%
%ADD12C,0.025400*%
%ADD13C,0.203200*%
%ADD14C,0.120000*%
G04 APERTURE END LIST*
D10*
X85773333Y-64297219D02*
X85773333Y-63297219D01*
X85773333Y-63297219D02*
X86154285Y-63297219D01*
X86154285Y-63297219D02*
X86249523Y-63344838D01*
X86249523Y-63344838D02*
X86297142Y-63392457D01*
X86297142Y-63392457D02*
X86344761Y-63487695D01*
X86344761Y-63487695D02*
X86344761Y-63630552D01*
X86344761Y-63630552D02*
X86297142Y-63725790D01*
X86297142Y-63725790D02*
X86249523Y-63773409D01*
X86249523Y-63773409D02*
X86154285Y-63821028D01*
X86154285Y-63821028D02*
X85773333Y-63821028D01*
X86773333Y-64297219D02*
X86773333Y-63297219D01*
X86773333Y-63297219D02*
X87106666Y-64011504D01*
X87106666Y-64011504D02*
X87439999Y-63297219D01*
X87439999Y-63297219D02*
X87439999Y-64297219D01*
X87868571Y-64249600D02*
X88011428Y-64297219D01*
X88011428Y-64297219D02*
X88249523Y-64297219D01*
X88249523Y-64297219D02*
X88344761Y-64249600D01*
X88344761Y-64249600D02*
X88392380Y-64201980D01*
X88392380Y-64201980D02*
X88439999Y-64106742D01*
X88439999Y-64106742D02*
X88439999Y-64011504D01*
X88439999Y-64011504D02*
X88392380Y-63916266D01*
X88392380Y-63916266D02*
X88344761Y-63868647D01*
X88344761Y-63868647D02*
X88249523Y-63821028D01*
X88249523Y-63821028D02*
X88059047Y-63773409D01*
X88059047Y-63773409D02*
X87963809Y-63725790D01*
X87963809Y-63725790D02*
X87916190Y-63678171D01*
X87916190Y-63678171D02*
X87868571Y-63582933D01*
X87868571Y-63582933D02*
X87868571Y-63487695D01*
X87868571Y-63487695D02*
X87916190Y-63392457D01*
X87916190Y-63392457D02*
X87963809Y-63344838D01*
X87963809Y-63344838D02*
X88059047Y-63297219D01*
X88059047Y-63297219D02*
X88297142Y-63297219D01*
X88297142Y-63297219D02*
X88439999Y-63344838D01*
X88773333Y-63297219D02*
X89439999Y-63297219D01*
X89439999Y-63297219D02*
X89011428Y-64297219D01*
X90011428Y-63297219D02*
X90106666Y-63297219D01*
X90106666Y-63297219D02*
X90201904Y-63344838D01*
X90201904Y-63344838D02*
X90249523Y-63392457D01*
X90249523Y-63392457D02*
X90297142Y-63487695D01*
X90297142Y-63487695D02*
X90344761Y-63678171D01*
X90344761Y-63678171D02*
X90344761Y-63916266D01*
X90344761Y-63916266D02*
X90297142Y-64106742D01*
X90297142Y-64106742D02*
X90249523Y-64201980D01*
X90249523Y-64201980D02*
X90201904Y-64249600D01*
X90201904Y-64249600D02*
X90106666Y-64297219D01*
X90106666Y-64297219D02*
X90011428Y-64297219D01*
X90011428Y-64297219D02*
X89916190Y-64249600D01*
X89916190Y-64249600D02*
X89868571Y-64201980D01*
X89868571Y-64201980D02*
X89820952Y-64106742D01*
X89820952Y-64106742D02*
X89773333Y-63916266D01*
X89773333Y-63916266D02*
X89773333Y-63678171D01*
X89773333Y-63678171D02*
X89820952Y-63487695D01*
X89820952Y-63487695D02*
X89868571Y-63392457D01*
X89868571Y-63392457D02*
X89916190Y-63344838D01*
X89916190Y-63344838D02*
X90011428Y-63297219D01*
X90963809Y-63297219D02*
X91059047Y-63297219D01*
X91059047Y-63297219D02*
X91154285Y-63344838D01*
X91154285Y-63344838D02*
X91201904Y-63392457D01*
X91201904Y-63392457D02*
X91249523Y-63487695D01*
X91249523Y-63487695D02*
X91297142Y-63678171D01*
X91297142Y-63678171D02*
X91297142Y-63916266D01*
X91297142Y-63916266D02*
X91249523Y-64106742D01*
X91249523Y-64106742D02*
X91201904Y-64201980D01*
X91201904Y-64201980D02*
X91154285Y-64249600D01*
X91154285Y-64249600D02*
X91059047Y-64297219D01*
X91059047Y-64297219D02*
X90963809Y-64297219D01*
X90963809Y-64297219D02*
X90868571Y-64249600D01*
X90868571Y-64249600D02*
X90820952Y-64201980D01*
X90820952Y-64201980D02*
X90773333Y-64106742D01*
X90773333Y-64106742D02*
X90725714Y-63916266D01*
X90725714Y-63916266D02*
X90725714Y-63678171D01*
X90725714Y-63678171D02*
X90773333Y-63487695D01*
X90773333Y-63487695D02*
X90820952Y-63392457D01*
X90820952Y-63392457D02*
X90868571Y-63344838D01*
X90868571Y-63344838D02*
X90963809Y-63297219D01*
X91630476Y-63297219D02*
X92249523Y-63297219D01*
X92249523Y-63297219D02*
X91916190Y-63678171D01*
X91916190Y-63678171D02*
X92059047Y-63678171D01*
X92059047Y-63678171D02*
X92154285Y-63725790D01*
X92154285Y-63725790D02*
X92201904Y-63773409D01*
X92201904Y-63773409D02*
X92249523Y-63868647D01*
X92249523Y-63868647D02*
X92249523Y-64106742D01*
X92249523Y-64106742D02*
X92201904Y-64201980D01*
X92201904Y-64201980D02*
X92154285Y-64249600D01*
X92154285Y-64249600D02*
X92059047Y-64297219D01*
X92059047Y-64297219D02*
X91773333Y-64297219D01*
X91773333Y-64297219D02*
X91678095Y-64249600D01*
X91678095Y-64249600D02*
X91630476Y-64201980D01*
X92678095Y-63916266D02*
X93440000Y-63916266D01*
X94487618Y-64297219D02*
X94154285Y-63821028D01*
X93916190Y-64297219D02*
X93916190Y-63297219D01*
X93916190Y-63297219D02*
X94297142Y-63297219D01*
X94297142Y-63297219D02*
X94392380Y-63344838D01*
X94392380Y-63344838D02*
X94439999Y-63392457D01*
X94439999Y-63392457D02*
X94487618Y-63487695D01*
X94487618Y-63487695D02*
X94487618Y-63630552D01*
X94487618Y-63630552D02*
X94439999Y-63725790D01*
X94439999Y-63725790D02*
X94392380Y-63773409D01*
X94392380Y-63773409D02*
X94297142Y-63821028D01*
X94297142Y-63821028D02*
X93916190Y-63821028D01*
X95201904Y-63297219D02*
X95201904Y-64011504D01*
X95201904Y-64011504D02*
X95154285Y-64154361D01*
X95154285Y-64154361D02*
X95059047Y-64249600D01*
X95059047Y-64249600D02*
X94916190Y-64297219D01*
X94916190Y-64297219D02*
X94820952Y-64297219D01*
X96201904Y-64297219D02*
X95630476Y-64297219D01*
X95916190Y-64297219D02*
X95916190Y-63297219D01*
X95916190Y-63297219D02*
X95820952Y-63440076D01*
X95820952Y-63440076D02*
X95725714Y-63535314D01*
X95725714Y-63535314D02*
X95630476Y-63582933D01*
X97154285Y-64297219D02*
X96582857Y-64297219D01*
X96868571Y-64297219D02*
X96868571Y-63297219D01*
X96868571Y-63297219D02*
X96773333Y-63440076D01*
X96773333Y-63440076D02*
X96678095Y-63535314D01*
X96678095Y-63535314D02*
X96582857Y-63582933D01*
X86582857Y-65002457D02*
X86630476Y-64954838D01*
X86630476Y-64954838D02*
X86725714Y-64907219D01*
X86725714Y-64907219D02*
X86963809Y-64907219D01*
X86963809Y-64907219D02*
X87059047Y-64954838D01*
X87059047Y-64954838D02*
X87106666Y-65002457D01*
X87106666Y-65002457D02*
X87154285Y-65097695D01*
X87154285Y-65097695D02*
X87154285Y-65192933D01*
X87154285Y-65192933D02*
X87106666Y-65335790D01*
X87106666Y-65335790D02*
X86535238Y-65907219D01*
X86535238Y-65907219D02*
X87154285Y-65907219D01*
X87630476Y-65907219D02*
X87820952Y-65907219D01*
X87820952Y-65907219D02*
X87916190Y-65859600D01*
X87916190Y-65859600D02*
X87963809Y-65811980D01*
X87963809Y-65811980D02*
X88059047Y-65669123D01*
X88059047Y-65669123D02*
X88106666Y-65478647D01*
X88106666Y-65478647D02*
X88106666Y-65097695D01*
X88106666Y-65097695D02*
X88059047Y-65002457D01*
X88059047Y-65002457D02*
X88011428Y-64954838D01*
X88011428Y-64954838D02*
X87916190Y-64907219D01*
X87916190Y-64907219D02*
X87725714Y-64907219D01*
X87725714Y-64907219D02*
X87630476Y-64954838D01*
X87630476Y-64954838D02*
X87582857Y-65002457D01*
X87582857Y-65002457D02*
X87535238Y-65097695D01*
X87535238Y-65097695D02*
X87535238Y-65335790D01*
X87535238Y-65335790D02*
X87582857Y-65431028D01*
X87582857Y-65431028D02*
X87630476Y-65478647D01*
X87630476Y-65478647D02*
X87725714Y-65526266D01*
X87725714Y-65526266D02*
X87916190Y-65526266D01*
X87916190Y-65526266D02*
X88011428Y-65478647D01*
X88011428Y-65478647D02*
X88059047Y-65431028D01*
X88059047Y-65431028D02*
X88106666Y-65335790D01*
X88535238Y-65526266D02*
X89297143Y-65526266D01*
X89963809Y-64907219D02*
X90059047Y-64907219D01*
X90059047Y-64907219D02*
X90154285Y-64954838D01*
X90154285Y-64954838D02*
X90201904Y-65002457D01*
X90201904Y-65002457D02*
X90249523Y-65097695D01*
X90249523Y-65097695D02*
X90297142Y-65288171D01*
X90297142Y-65288171D02*
X90297142Y-65526266D01*
X90297142Y-65526266D02*
X90249523Y-65716742D01*
X90249523Y-65716742D02*
X90201904Y-65811980D01*
X90201904Y-65811980D02*
X90154285Y-65859600D01*
X90154285Y-65859600D02*
X90059047Y-65907219D01*
X90059047Y-65907219D02*
X89963809Y-65907219D01*
X89963809Y-65907219D02*
X89868571Y-65859600D01*
X89868571Y-65859600D02*
X89820952Y-65811980D01*
X89820952Y-65811980D02*
X89773333Y-65716742D01*
X89773333Y-65716742D02*
X89725714Y-65526266D01*
X89725714Y-65526266D02*
X89725714Y-65288171D01*
X89725714Y-65288171D02*
X89773333Y-65097695D01*
X89773333Y-65097695D02*
X89820952Y-65002457D01*
X89820952Y-65002457D02*
X89868571Y-64954838D01*
X89868571Y-64954838D02*
X89963809Y-64907219D01*
X91249523Y-65907219D02*
X90678095Y-65907219D01*
X90963809Y-65907219D02*
X90963809Y-64907219D01*
X90963809Y-64907219D02*
X90868571Y-65050076D01*
X90868571Y-65050076D02*
X90773333Y-65145314D01*
X90773333Y-65145314D02*
X90678095Y-65192933D01*
X91678095Y-65526266D02*
X92440000Y-65526266D01*
X92868571Y-65002457D02*
X92916190Y-64954838D01*
X92916190Y-64954838D02*
X93011428Y-64907219D01*
X93011428Y-64907219D02*
X93249523Y-64907219D01*
X93249523Y-64907219D02*
X93344761Y-64954838D01*
X93344761Y-64954838D02*
X93392380Y-65002457D01*
X93392380Y-65002457D02*
X93439999Y-65097695D01*
X93439999Y-65097695D02*
X93439999Y-65192933D01*
X93439999Y-65192933D02*
X93392380Y-65335790D01*
X93392380Y-65335790D02*
X92820952Y-65907219D01*
X92820952Y-65907219D02*
X93439999Y-65907219D01*
X94059047Y-64907219D02*
X94154285Y-64907219D01*
X94154285Y-64907219D02*
X94249523Y-64954838D01*
X94249523Y-64954838D02*
X94297142Y-65002457D01*
X94297142Y-65002457D02*
X94344761Y-65097695D01*
X94344761Y-65097695D02*
X94392380Y-65288171D01*
X94392380Y-65288171D02*
X94392380Y-65526266D01*
X94392380Y-65526266D02*
X94344761Y-65716742D01*
X94344761Y-65716742D02*
X94297142Y-65811980D01*
X94297142Y-65811980D02*
X94249523Y-65859600D01*
X94249523Y-65859600D02*
X94154285Y-65907219D01*
X94154285Y-65907219D02*
X94059047Y-65907219D01*
X94059047Y-65907219D02*
X93963809Y-65859600D01*
X93963809Y-65859600D02*
X93916190Y-65811980D01*
X93916190Y-65811980D02*
X93868571Y-65716742D01*
X93868571Y-65716742D02*
X93820952Y-65526266D01*
X93820952Y-65526266D02*
X93820952Y-65288171D01*
X93820952Y-65288171D02*
X93868571Y-65097695D01*
X93868571Y-65097695D02*
X93916190Y-65002457D01*
X93916190Y-65002457D02*
X93963809Y-64954838D01*
X93963809Y-64954838D02*
X94059047Y-64907219D01*
X94773333Y-65002457D02*
X94820952Y-64954838D01*
X94820952Y-64954838D02*
X94916190Y-64907219D01*
X94916190Y-64907219D02*
X95154285Y-64907219D01*
X95154285Y-64907219D02*
X95249523Y-64954838D01*
X95249523Y-64954838D02*
X95297142Y-65002457D01*
X95297142Y-65002457D02*
X95344761Y-65097695D01*
X95344761Y-65097695D02*
X95344761Y-65192933D01*
X95344761Y-65192933D02*
X95297142Y-65335790D01*
X95297142Y-65335790D02*
X94725714Y-65907219D01*
X94725714Y-65907219D02*
X95344761Y-65907219D01*
X96201904Y-65240552D02*
X96201904Y-65907219D01*
X95963809Y-64859600D02*
X95725714Y-65573885D01*
X95725714Y-65573885D02*
X96344761Y-65573885D01*
D11*
X93249523Y-45897800D02*
X93154285Y-45850180D01*
X93154285Y-45850180D02*
X92963809Y-45850180D01*
X92963809Y-45850180D02*
X92868571Y-45897800D01*
X92868571Y-45897800D02*
X92820952Y-45993038D01*
X92820952Y-45993038D02*
X92820952Y-46040657D01*
X92820952Y-46040657D02*
X92868571Y-46135895D01*
X92868571Y-46135895D02*
X92963809Y-46183514D01*
X92963809Y-46183514D02*
X93106666Y-46183514D01*
X93106666Y-46183514D02*
X93201904Y-46231133D01*
X93201904Y-46231133D02*
X93249523Y-46326371D01*
X93249523Y-46326371D02*
X93249523Y-46373990D01*
X93249523Y-46373990D02*
X93201904Y-46469228D01*
X93201904Y-46469228D02*
X93106666Y-46516847D01*
X93106666Y-46516847D02*
X92963809Y-46516847D01*
X92963809Y-46516847D02*
X92868571Y-46469228D01*
X92249523Y-45850180D02*
X92344761Y-45897800D01*
X92344761Y-45897800D02*
X92392380Y-45945419D01*
X92392380Y-45945419D02*
X92439999Y-46040657D01*
X92439999Y-46040657D02*
X92439999Y-46326371D01*
X92439999Y-46326371D02*
X92392380Y-46421609D01*
X92392380Y-46421609D02*
X92344761Y-46469228D01*
X92344761Y-46469228D02*
X92249523Y-46516847D01*
X92249523Y-46516847D02*
X92106666Y-46516847D01*
X92106666Y-46516847D02*
X92011428Y-46469228D01*
X92011428Y-46469228D02*
X91963809Y-46421609D01*
X91963809Y-46421609D02*
X91916190Y-46326371D01*
X91916190Y-46326371D02*
X91916190Y-46040657D01*
X91916190Y-46040657D02*
X91963809Y-45945419D01*
X91963809Y-45945419D02*
X92011428Y-45897800D01*
X92011428Y-45897800D02*
X92106666Y-45850180D01*
X92106666Y-45850180D02*
X92249523Y-45850180D01*
X91059047Y-45850180D02*
X91059047Y-46373990D01*
X91059047Y-46373990D02*
X91106666Y-46469228D01*
X91106666Y-46469228D02*
X91201904Y-46516847D01*
X91201904Y-46516847D02*
X91392380Y-46516847D01*
X91392380Y-46516847D02*
X91487618Y-46469228D01*
X91059047Y-45897800D02*
X91154285Y-45850180D01*
X91154285Y-45850180D02*
X91392380Y-45850180D01*
X91392380Y-45850180D02*
X91487618Y-45897800D01*
X91487618Y-45897800D02*
X91535237Y-45993038D01*
X91535237Y-45993038D02*
X91535237Y-46088276D01*
X91535237Y-46088276D02*
X91487618Y-46183514D01*
X91487618Y-46183514D02*
X91392380Y-46231133D01*
X91392380Y-46231133D02*
X91154285Y-46231133D01*
X91154285Y-46231133D02*
X91059047Y-46278752D01*
X90439999Y-45850180D02*
X90535237Y-45897800D01*
X90535237Y-45897800D02*
X90582856Y-45993038D01*
X90582856Y-45993038D02*
X90582856Y-46850180D01*
X89678094Y-45897800D02*
X89773332Y-45850180D01*
X89773332Y-45850180D02*
X89963808Y-45850180D01*
X89963808Y-45850180D02*
X90059046Y-45897800D01*
X90059046Y-45897800D02*
X90106665Y-45993038D01*
X90106665Y-45993038D02*
X90106665Y-46373990D01*
X90106665Y-46373990D02*
X90059046Y-46469228D01*
X90059046Y-46469228D02*
X89963808Y-46516847D01*
X89963808Y-46516847D02*
X89773332Y-46516847D01*
X89773332Y-46516847D02*
X89678094Y-46469228D01*
X89678094Y-46469228D02*
X89630475Y-46373990D01*
X89630475Y-46373990D02*
X89630475Y-46278752D01*
X89630475Y-46278752D02*
X90106665Y-46183514D01*
D12*
X74212887Y-53492066D02*
X74503173Y-53492066D01*
X74503173Y-53492066D02*
X74561230Y-53511419D01*
X74561230Y-53511419D02*
X74599935Y-53550123D01*
X74599935Y-53550123D02*
X74619287Y-53608181D01*
X74619287Y-53608181D02*
X74619287Y-53646885D01*
X74619287Y-53085666D02*
X74619287Y-53317895D01*
X74619287Y-53201781D02*
X74212887Y-53201781D01*
X74212887Y-53201781D02*
X74270944Y-53240485D01*
X74270944Y-53240485D02*
X74309649Y-53279190D01*
X74309649Y-53279190D02*
X74329001Y-53317895D01*
X76412887Y-53979114D02*
X76412887Y-54056524D01*
X76412887Y-54056524D02*
X76432239Y-54095228D01*
X76432239Y-54095228D02*
X76451592Y-54114581D01*
X76451592Y-54114581D02*
X76509649Y-54153286D01*
X76509649Y-54153286D02*
X76587058Y-54172638D01*
X76587058Y-54172638D02*
X76741877Y-54172638D01*
X76741877Y-54172638D02*
X76780582Y-54153286D01*
X76780582Y-54153286D02*
X76799935Y-54133933D01*
X76799935Y-54133933D02*
X76819287Y-54095228D01*
X76819287Y-54095228D02*
X76819287Y-54017819D01*
X76819287Y-54017819D02*
X76799935Y-53979114D01*
X76799935Y-53979114D02*
X76780582Y-53959762D01*
X76780582Y-53959762D02*
X76741877Y-53940409D01*
X76741877Y-53940409D02*
X76645115Y-53940409D01*
X76645115Y-53940409D02*
X76606411Y-53959762D01*
X76606411Y-53959762D02*
X76587058Y-53979114D01*
X76587058Y-53979114D02*
X76567706Y-54017819D01*
X76567706Y-54017819D02*
X76567706Y-54095228D01*
X76567706Y-54095228D02*
X76587058Y-54133933D01*
X76587058Y-54133933D02*
X76606411Y-54153286D01*
X76606411Y-54153286D02*
X76645115Y-54172638D01*
X76819287Y-53766238D02*
X76412887Y-53766238D01*
X76412887Y-53766238D02*
X76412887Y-53611419D01*
X76412887Y-53611419D02*
X76432239Y-53572714D01*
X76432239Y-53572714D02*
X76451592Y-53553361D01*
X76451592Y-53553361D02*
X76490296Y-53534009D01*
X76490296Y-53534009D02*
X76548354Y-53534009D01*
X76548354Y-53534009D02*
X76587058Y-53553361D01*
X76587058Y-53553361D02*
X76606411Y-53572714D01*
X76606411Y-53572714D02*
X76625763Y-53611419D01*
X76625763Y-53611419D02*
X76625763Y-53766238D01*
X76412887Y-53185666D02*
X76412887Y-53263076D01*
X76412887Y-53263076D02*
X76432239Y-53301780D01*
X76432239Y-53301780D02*
X76451592Y-53321133D01*
X76451592Y-53321133D02*
X76509649Y-53359838D01*
X76509649Y-53359838D02*
X76587058Y-53379190D01*
X76587058Y-53379190D02*
X76741877Y-53379190D01*
X76741877Y-53379190D02*
X76780582Y-53359838D01*
X76780582Y-53359838D02*
X76799935Y-53340485D01*
X76799935Y-53340485D02*
X76819287Y-53301780D01*
X76819287Y-53301780D02*
X76819287Y-53224371D01*
X76819287Y-53224371D02*
X76799935Y-53185666D01*
X76799935Y-53185666D02*
X76780582Y-53166314D01*
X76780582Y-53166314D02*
X76741877Y-53146961D01*
X76741877Y-53146961D02*
X76645115Y-53146961D01*
X76645115Y-53146961D02*
X76606411Y-53166314D01*
X76606411Y-53166314D02*
X76587058Y-53185666D01*
X76587058Y-53185666D02*
X76567706Y-53224371D01*
X76567706Y-53224371D02*
X76567706Y-53301780D01*
X76567706Y-53301780D02*
X76587058Y-53340485D01*
X76587058Y-53340485D02*
X76606411Y-53359838D01*
X76606411Y-53359838D02*
X76645115Y-53379190D01*
X76780582Y-52740561D02*
X76799935Y-52759913D01*
X76799935Y-52759913D02*
X76819287Y-52817971D01*
X76819287Y-52817971D02*
X76819287Y-52856675D01*
X76819287Y-52856675D02*
X76799935Y-52914732D01*
X76799935Y-52914732D02*
X76761230Y-52953437D01*
X76761230Y-52953437D02*
X76722525Y-52972790D01*
X76722525Y-52972790D02*
X76645115Y-52992142D01*
X76645115Y-52992142D02*
X76587058Y-52992142D01*
X76587058Y-52992142D02*
X76509649Y-52972790D01*
X76509649Y-52972790D02*
X76470944Y-52953437D01*
X76470944Y-52953437D02*
X76432239Y-52914732D01*
X76432239Y-52914732D02*
X76412887Y-52856675D01*
X76412887Y-52856675D02*
X76412887Y-52817971D01*
X76412887Y-52817971D02*
X76432239Y-52759913D01*
X76432239Y-52759913D02*
X76451592Y-52740561D01*
D11*
X97837666Y-49643819D02*
X97837666Y-50358104D01*
X97837666Y-50358104D02*
X97790047Y-50500961D01*
X97790047Y-50500961D02*
X97694809Y-50596200D01*
X97694809Y-50596200D02*
X97551952Y-50643819D01*
X97551952Y-50643819D02*
X97456714Y-50643819D01*
X98266238Y-49739057D02*
X98313857Y-49691438D01*
X98313857Y-49691438D02*
X98409095Y-49643819D01*
X98409095Y-49643819D02*
X98647190Y-49643819D01*
X98647190Y-49643819D02*
X98742428Y-49691438D01*
X98742428Y-49691438D02*
X98790047Y-49739057D01*
X98790047Y-49739057D02*
X98837666Y-49834295D01*
X98837666Y-49834295D02*
X98837666Y-49929533D01*
X98837666Y-49929533D02*
X98790047Y-50072390D01*
X98790047Y-50072390D02*
X98218619Y-50643819D01*
X98218619Y-50643819D02*
X98837666Y-50643819D01*
D13*
%TO.C,J1*%
X85532600Y-49256600D02*
X72532600Y-49256600D01*
X85532600Y-49256600D02*
X85532600Y-61376600D01*
X72532600Y-49256600D02*
X72532600Y-61376600D01*
X72532600Y-61376600D02*
X85532600Y-61376600D01*
D14*
%TO.C,J2*%
X96586000Y-51629000D02*
X96586000Y-58099000D01*
X96586000Y-51629000D02*
X97228470Y-51629000D01*
X96586000Y-58099000D02*
X97228470Y-58099000D01*
X97843530Y-51629000D02*
X98046000Y-51629000D01*
X97843530Y-58099000D02*
X98498470Y-58099000D01*
X98806000Y-51564000D02*
X99756000Y-51564000D01*
X99113530Y-58099000D02*
X99756000Y-58099000D01*
X99566000Y-52959000D02*
X99756000Y-52959000D01*
X99756000Y-51564000D02*
X99756000Y-52324000D01*
X99756000Y-52959000D02*
X99756000Y-58099000D01*
%TD*%
M02*
