%TF.GenerationSoftware,KiCad,Pcbnew,7.0.10-7.0.10~ubuntu22.04.1*%
%TF.CreationDate,2024-01-29T20:12:13+05:30*%
%TF.ProjectId,bir-pms7003-rj11,6269722d-706d-4733-9730-30332d726a31,rev?*%
%TF.SameCoordinates,Original*%
%TF.FileFunction,Legend,Top*%
%TF.FilePolarity,Positive*%
%FSLAX46Y46*%
G04 Gerber Fmt 4.6, Leading zero omitted, Abs format (unit mm)*
G04 Created by KiCad (PCBNEW 7.0.10-7.0.10~ubuntu22.04.1) date 2024-01-29 20:12:13*
%MOMM*%
%LPD*%
G01*
G04 APERTURE LIST*
%ADD10C,0.150000*%
%ADD11C,0.120000*%
%ADD12C,1.879600*%
G04 APERTURE END LIST*
D10*
X109156666Y-61024819D02*
X108823333Y-60548628D01*
X108585238Y-61024819D02*
X108585238Y-60024819D01*
X108585238Y-60024819D02*
X108966190Y-60024819D01*
X108966190Y-60024819D02*
X109061428Y-60072438D01*
X109061428Y-60072438D02*
X109109047Y-60120057D01*
X109109047Y-60120057D02*
X109156666Y-60215295D01*
X109156666Y-60215295D02*
X109156666Y-60358152D01*
X109156666Y-60358152D02*
X109109047Y-60453390D01*
X109109047Y-60453390D02*
X109061428Y-60501009D01*
X109061428Y-60501009D02*
X108966190Y-60548628D01*
X108966190Y-60548628D02*
X108585238Y-60548628D01*
X109585238Y-60501009D02*
X109918571Y-60501009D01*
X110061428Y-61024819D02*
X109585238Y-61024819D01*
X109585238Y-61024819D02*
X109585238Y-60024819D01*
X109585238Y-60024819D02*
X110061428Y-60024819D01*
X110823333Y-60501009D02*
X110490000Y-60501009D01*
X110490000Y-61024819D02*
X110490000Y-60024819D01*
X110490000Y-60024819D02*
X110966190Y-60024819D01*
X111490000Y-60024819D02*
X111490000Y-60262914D01*
X111251905Y-60167676D02*
X111490000Y-60262914D01*
X111490000Y-60262914D02*
X111728095Y-60167676D01*
X111347143Y-60453390D02*
X111490000Y-60262914D01*
X111490000Y-60262914D02*
X111632857Y-60453390D01*
X112251905Y-60024819D02*
X112251905Y-60262914D01*
X112013810Y-60167676D02*
X112251905Y-60262914D01*
X112251905Y-60262914D02*
X112490000Y-60167676D01*
X112109048Y-60453390D02*
X112251905Y-60262914D01*
X112251905Y-60262914D02*
X112394762Y-60453390D01*
X109156666Y-41974819D02*
X108823333Y-41498628D01*
X108585238Y-41974819D02*
X108585238Y-40974819D01*
X108585238Y-40974819D02*
X108966190Y-40974819D01*
X108966190Y-40974819D02*
X109061428Y-41022438D01*
X109061428Y-41022438D02*
X109109047Y-41070057D01*
X109109047Y-41070057D02*
X109156666Y-41165295D01*
X109156666Y-41165295D02*
X109156666Y-41308152D01*
X109156666Y-41308152D02*
X109109047Y-41403390D01*
X109109047Y-41403390D02*
X109061428Y-41451009D01*
X109061428Y-41451009D02*
X108966190Y-41498628D01*
X108966190Y-41498628D02*
X108585238Y-41498628D01*
X109585238Y-41451009D02*
X109918571Y-41451009D01*
X110061428Y-41974819D02*
X109585238Y-41974819D01*
X109585238Y-41974819D02*
X109585238Y-40974819D01*
X109585238Y-40974819D02*
X110061428Y-40974819D01*
X110823333Y-41451009D02*
X110490000Y-41451009D01*
X110490000Y-41974819D02*
X110490000Y-40974819D01*
X110490000Y-40974819D02*
X110966190Y-40974819D01*
X111490000Y-40974819D02*
X111490000Y-41212914D01*
X111251905Y-41117676D02*
X111490000Y-41212914D01*
X111490000Y-41212914D02*
X111728095Y-41117676D01*
X111347143Y-41403390D02*
X111490000Y-41212914D01*
X111490000Y-41212914D02*
X111632857Y-41403390D01*
X112251905Y-40974819D02*
X112251905Y-41212914D01*
X112013810Y-41117676D02*
X112251905Y-41212914D01*
X112251905Y-41212914D02*
X112490000Y-41117676D01*
X112109048Y-41403390D02*
X112251905Y-41212914D01*
X112251905Y-41212914D02*
X112394762Y-41403390D01*
X68516666Y-41974819D02*
X68183333Y-41498628D01*
X67945238Y-41974819D02*
X67945238Y-40974819D01*
X67945238Y-40974819D02*
X68326190Y-40974819D01*
X68326190Y-40974819D02*
X68421428Y-41022438D01*
X68421428Y-41022438D02*
X68469047Y-41070057D01*
X68469047Y-41070057D02*
X68516666Y-41165295D01*
X68516666Y-41165295D02*
X68516666Y-41308152D01*
X68516666Y-41308152D02*
X68469047Y-41403390D01*
X68469047Y-41403390D02*
X68421428Y-41451009D01*
X68421428Y-41451009D02*
X68326190Y-41498628D01*
X68326190Y-41498628D02*
X67945238Y-41498628D01*
X68945238Y-41451009D02*
X69278571Y-41451009D01*
X69421428Y-41974819D02*
X68945238Y-41974819D01*
X68945238Y-41974819D02*
X68945238Y-40974819D01*
X68945238Y-40974819D02*
X69421428Y-40974819D01*
X70183333Y-41451009D02*
X69850000Y-41451009D01*
X69850000Y-41974819D02*
X69850000Y-40974819D01*
X69850000Y-40974819D02*
X70326190Y-40974819D01*
X70850000Y-40974819D02*
X70850000Y-41212914D01*
X70611905Y-41117676D02*
X70850000Y-41212914D01*
X70850000Y-41212914D02*
X71088095Y-41117676D01*
X70707143Y-41403390D02*
X70850000Y-41212914D01*
X70850000Y-41212914D02*
X70992857Y-41403390D01*
X71611905Y-40974819D02*
X71611905Y-41212914D01*
X71373810Y-41117676D02*
X71611905Y-41212914D01*
X71611905Y-41212914D02*
X71850000Y-41117676D01*
X71469048Y-41403390D02*
X71611905Y-41212914D01*
X71611905Y-41212914D02*
X71754762Y-41403390D01*
X68516666Y-61024819D02*
X68183333Y-60548628D01*
X67945238Y-61024819D02*
X67945238Y-60024819D01*
X67945238Y-60024819D02*
X68326190Y-60024819D01*
X68326190Y-60024819D02*
X68421428Y-60072438D01*
X68421428Y-60072438D02*
X68469047Y-60120057D01*
X68469047Y-60120057D02*
X68516666Y-60215295D01*
X68516666Y-60215295D02*
X68516666Y-60358152D01*
X68516666Y-60358152D02*
X68469047Y-60453390D01*
X68469047Y-60453390D02*
X68421428Y-60501009D01*
X68421428Y-60501009D02*
X68326190Y-60548628D01*
X68326190Y-60548628D02*
X67945238Y-60548628D01*
X68945238Y-60501009D02*
X69278571Y-60501009D01*
X69421428Y-61024819D02*
X68945238Y-61024819D01*
X68945238Y-61024819D02*
X68945238Y-60024819D01*
X68945238Y-60024819D02*
X69421428Y-60024819D01*
X70183333Y-60501009D02*
X69850000Y-60501009D01*
X69850000Y-61024819D02*
X69850000Y-60024819D01*
X69850000Y-60024819D02*
X70326190Y-60024819D01*
X70850000Y-60024819D02*
X70850000Y-60262914D01*
X70611905Y-60167676D02*
X70850000Y-60262914D01*
X70850000Y-60262914D02*
X71088095Y-60167676D01*
X70707143Y-60453390D02*
X70850000Y-60262914D01*
X70850000Y-60262914D02*
X70992857Y-60453390D01*
X71611905Y-60024819D02*
X71611905Y-60262914D01*
X71373810Y-60167676D02*
X71611905Y-60262914D01*
X71611905Y-60262914D02*
X71850000Y-60167676D01*
X71469048Y-60453390D02*
X71611905Y-60262914D01*
X71611905Y-60262914D02*
X71754762Y-60453390D01*
X97837666Y-49643819D02*
X97837666Y-50358104D01*
X97837666Y-50358104D02*
X97790047Y-50500961D01*
X97790047Y-50500961D02*
X97694809Y-50596200D01*
X97694809Y-50596200D02*
X97551952Y-50643819D01*
X97551952Y-50643819D02*
X97456714Y-50643819D01*
X98266238Y-49739057D02*
X98313857Y-49691438D01*
X98313857Y-49691438D02*
X98409095Y-49643819D01*
X98409095Y-49643819D02*
X98647190Y-49643819D01*
X98647190Y-49643819D02*
X98742428Y-49691438D01*
X98742428Y-49691438D02*
X98790047Y-49739057D01*
X98790047Y-49739057D02*
X98837666Y-49834295D01*
X98837666Y-49834295D02*
X98837666Y-49929533D01*
X98837666Y-49929533D02*
X98790047Y-50072390D01*
X98790047Y-50072390D02*
X98218619Y-50643819D01*
X98218619Y-50643819D02*
X98837666Y-50643819D01*
D11*
%TO.C,J2*%
X96586000Y-51629000D02*
X96586000Y-58099000D01*
X99113530Y-58099000D02*
X99756000Y-58099000D01*
X99756000Y-52959000D02*
X99756000Y-58099000D01*
X99756000Y-51564000D02*
X99756000Y-52324000D01*
X96586000Y-51629000D02*
X97228470Y-51629000D01*
X97843530Y-58099000D02*
X98498470Y-58099000D01*
X96586000Y-58099000D02*
X97228470Y-58099000D01*
X97843530Y-51629000D02*
X98046000Y-51629000D01*
X98806000Y-51564000D02*
X99756000Y-51564000D01*
X99566000Y-52959000D02*
X99756000Y-52959000D01*
%TD*%
D12*
%TO.C,J1*%
X83132600Y-58426600D03*
X80592600Y-57156600D03*
X83132600Y-55886600D03*
X80592600Y-54616600D03*
X83132600Y-53346600D03*
X80592600Y-52076600D03*
%TD*%
M02*
